{
  "accessors": [
    {
      "bufferView": 2,
      "componentType": 5126,
      "count": 5750,
      "max": [
        17.306495666503906,
        29.434722900390625,
        14.66067123413086
      ],
      "min": [
        -17.496248245239258,
        0.00038923462852835655,
        -12.735663414001465
      ],
      "type": "VEC3"
    },
    {
      "bufferView": 2,
      "byteOffset": 69000,
      "componentType": 5126,
      "count": 5750,
      "max": [
        1.0,
        1.0,
        1.0
      ],
      "min": [
        -1.0,
        -1.0,
        -1.0
      ],
      "type": "VEC3"
    },
    {
      "bufferView": 3,
      "componentType": 5126,
      "count": 5750,
      "max": [
        1.0,
        1.0,
        1.0,
        1.0
      ],
      "min": [
        -1.0,
        -1.0,
        -1.0,
        -1.0
      ],
      "type": "VEC4"
    },
    {
      "bufferView": 1,
      "componentType": 5126,
      "count": 5750,
      "max": [
        0.9960581064224243,
        0.9915867447853088
      ],
      "min": [
        0.0030559301376342773,
        0.0039026199374347925
      ],
      "type": "VEC2"
    },
    {
      "bufferView": 1,
      "byteOffset": 46000,
      "componentType": 5126,
      "count": 5750,
      "max": [
        0.9960581064224243,
        0.9915867447853088
      ],
      "min": [
        0.0030559301376342773,
        0.0039026199374347925
      ],
      "type": "VEC2"
    },
    {
      "bufferView": 1,
      "byteOffset": 92000,
      "componentType": 5126,
      "count": 5750,
      "max": [
        0.9960581064224243,
        0.9915867447853088
      ],
      "min": [
        0.0030559301376342773,
        0.0039026199374347925
      ],
      "type": "VEC2"
    },
    {
      "bufferView": 1,
      "byteOffset": 138000,
      "componentType": 5126,
      "count": 5750,
      "max": [
        0.9960581064224243,
        0.9915867447853088
      ],
      "min": [
        0.0030559301376342773,
        0.0039026199374347925
      ],
      "type": "VEC2"
    },
    {
      "bufferView": 0,
      "componentType": 5125,
      "count": 10578,
      "type": "SCALAR"
    }
  ],
  "asset": {
    "extras": {
      "author": "Nortenko Dmytro (https://sketchfab.com/leondp)",
      "license": "CC-BY-4.0 (http://creativecommons.org/licenses/by/4.0/)",
      "source": "https://sketchfab.com/3d-models/military-laptop-2-4cf7d92c8c06426287aa3694c70efb2c",
      "title": "Military laptop (2)"
    },
    "generator": "Sketchfab-16.7.0",
    "version": "2.0"
  },
  "bufferViews": [
    {
      "buffer": 0,
      "byteLength": 42312,
      "name": "floatBufferViews",
      "target": 34963
    },
    {
      "buffer": 0,
      "byteLength": 184000,
      "byteOffset": 42312,
      "byteStride": 8,
      "name": "floatBufferViews",
      "target": 34962
    },
    {
      "buffer": 0,
      "byteLength": 138000,
      "byteOffset": 226312,
      "byteStride": 12,
      "name": "floatBufferViews",
      "target": 34962
    },
    {
      "buffer": 0,
      "byteLength": 92000,
      "byteOffset": 364312,
      "byteStride": 16,
      "name": "floatBufferViews",
      "target": 34962
    }
  ],
  "buffers": [
    {
      "byteLength": 456312,
      "uri": "scene.bin"
    }
  ],
  "extensionsUsed": [
    "KHR_materials_emissive_strength"
  ],
  "images": [
    {
      "uri": "textures/laptop_baseColor.jpeg"
    },
    {
      "uri": "textures/laptop_metallicRoughness.png"
    },
    {
      "uri": "textures/laptop_emissive.jpeg"
    },
    {
      "uri": "textures/laptop_normal.png"
    }
  ],
  "materials": [
    {
      "emissiveFactor": [
        1.0,
        1.0,
        1.0
      ],
      "emissiveTexture": {
        "index": 2
      },
      "extensions": {
        "KHR_materials_emissive_strength": {
          "emissiveStrength": 10.0
        }
      },
      "name": "laptop",
      "normalTexture": {
        "index": 3
      },
      "occlusionTexture": {
        "index": 1,
        "strength": 0.555
      },
      "pbrMetallicRoughness": {
        "baseColorTexture": {
          "index": 0
        },
        "metallicRoughnessTexture": {
          "index": 1
        }
      }
    }
  ],
  "meshes": [
    {
      "name": "laptop_laptop_0",
      "primitives": [
        {
          "attributes": {
            "NORMAL": 1,
            "POSITION": 0,
            "TANGENT": 2,
            "TEXCOORD_0": 3,
            "TEXCOORD_1": 4,
            "TEXCOORD_2": 5,
            "TEXCOORD_3": 6
          },
          "indices": 7,
          "material": 0,
          "mode": 4
        }
      ]
    }
  ],
  "nodes": [
    {
      "children": [
        1
      ],
      "matrix": [
        1.4422508478164673,
        0.0,
        0.0,
        0.0,
        0.0,
        3.2024401970619893e-16,
        -1.4422508478164673,
        0.0,
        0.0,
        1.4422508478164673,
        3.2024401970619893e-16,
        0.0,
        0.0,
        0.0,
        0.0,
        1.0
      ],
      "name": "Sketchfab_model"
    },
    {
      "children": [
        2
      ],
      "matrix": [
        0.009999999776482582,
        0.0,
        0.0,
        0.0,
        0.0,
        0.0,
        0.009999999776482582,
        0.0,
        0.0,
        -0.009999999776482582,
        0.0,
        0.0,
        0.0,
        0.0,
        0.0,
        1.0
      ],
      "name": "7c71b9860df4443ab23237d695702c45.fbx"
    },
    {
      "children": [
        3
      ],
      "name": "RootNode"
    },
    {
      "children": [
        4
      ],
      "name": "laptop"
    },
    {
      "mesh": 0,
      "name": "laptop_laptop_0"
    }
  ],
  "samplers": [
    {
      "magFilter": 9729,
      "minFilter": 9987,
      "wrapS": 10497,
      "wrapT": 10497
    }
  ],
  "scene": 0,
  "scenes": [
    {
      "name": "Sketchfab_Scene",
      "nodes": [
        0
      ]
    }
  ],
  "textures": [
    {
      "sampler": 0,
      "source": 0
    },
    {
      "sampler": 0,
      "source": 1
    },
    {
      "sampler": 0,
      "source": 2
    },
    {
      "sampler": 0,
      "source": 3
    }
  ]
}
